ffmpeg version 3.4.8-0ubuntu0.2 Copyright (c) 2000-2020 the FFmpeg developers
  built with gcc 7 (Ubuntu 7.5.0-3ubuntu1~18.04)
  configuration: --prefix=/usr --extra-version=0ubuntu0.2 --toolchain=hardened --libdir=/usr/lib/x86_64-linux-gnu --incdir=/usr/include/x86_64-linux-gnu --enable-gpl --disable-stripping --enable-avresample --enable-avisynth --enable-gnutls --enable-ladspa --enable-libass --enable-libbluray --enable-libbs2b --enable-libcaca --enable-libcdio --enable-libflite --enable-libfontconfig --enable-libfreetype --enable-libfribidi --enable-libgme --enable-libgsm --enable-libmp3lame --enable-libmysofa --enable-libopenjpeg --enable-libopenmpt --enable-libopus --enable-libpulse --enable-librubberband --enable-librsvg --enable-libshine --enable-libsnappy --enable-libsoxr --enable-libspeex --enable-libssh --enable-libtheora --enable-libtwolame --enable-libvorbis --enable-libvpx --enable-libwavpack --enable-libwebp --enable-libx265 --enable-libxml2 --enable-libxvid --enable-libzmq --enable-libzvbi --enable-omx --enable-openal --enable-opengl --enable-sdl2 --enable-libdc1394 --enable-libdrm --enable-libiec61883 --enable-chromaprint --enable-frei0r --enable-libopencv --enable-libx264 --enable-shared
  libavutil      55. 78.100 / 55. 78.100
  libavcodec     57.107.100 / 57.107.100
  libavformat    57. 83.100 / 57. 83.100
  libavdevice    57. 10.100 / 57. 10.100
  libavfilter     6.107.100 /  6.107.100
  libavresample   3.  7.  0 /  3.  7.  0
  libswscale      4.  8.100 /  4.  8.100
  libswresample   2.  9.100 /  2.  9.100
  libpostproc    54.  7.100 / 54.  7.100
[rawvideo @ 0x55bd3cc4aa20] Estimating duration from bitrate, this may be inaccurate
Input #0, rawvideo, from '../../SVC-Encoder-20220109T061506Z-001/SVC-Encoder/Dataset/RollerCoaster/ERP_8x8/tile_yuv/Tile_53_480x240.yuv':
  Duration: 00:00:10.00, start: 0.000000, bitrate: 41472 kb/s
    Stream #0:0: Video: rawvideo (I420 / 0x30323449), yuv420p, 480x240, 41472 kb/s, 30 tbr, 30 tbn, 30 tbc
Stream mapping:
  Stream #0:0 -> #0:0 (rawvideo (native) -> h264 (libx264))
Press [q] to stop, [?] for help
[libx264 @ 0x55bd3cc57c60] using cpu capabilities: MMX2 SSE2Fast LZCNT SSSE3 SSE4.2 AVX
[libx264 @ 0x55bd3cc57c60] profile High, level 2.1
Output #0, rawvideo, to 'RollerCoaster_Tile_53_480x240_x264_QP_20.h264':
  Metadata:
    encoder         : Lavf57.83.100
    Stream #0:0: Video: h264 (libx264), yuv420p, 480x240, q=-1--1, 30 fps, 30 tbn, 30 tbc
    Metadata:
      encoder         : Lavc57.107.100 libx264
    Side data:
      cpb: bitrate max/min/avg: 0/0/0 buffer size: 0 vbv_delay: -1
frame=  190 fps=0.0 q=26.0 PSNR=Y:nan U:nan V:nan *:nan size=      82kB time=00:00:04.90 bitrate= 137.8kbits/s speed=9.78x    frame=  300 fps=0.0 q=26.0 LPSNR=Y:inf U:inf V:inf *:inf size=     154kB time=00:00:09.93 bitrate= 126.7kbits/s speed=11.7x    
video:154kB audio:0kB subtitle:0kB other streams:0kB global headers:0kB muxing overhead: 0.000000%
[libx264 @ 0x55bd3cc57c60] frame I:2     Avg QP:19.10  size:  7926  PSNR Mean Y:52.68 U:51.73 V:51.48 Avg:52.28 Global:52.27
[libx264 @ 0x55bd3cc57c60] frame P:76    Avg QP:20.00  size:  1231  PSNR Mean Y:50.57 U:50.57 V:50.63 Avg:50.58 Global:50.55
[libx264 @ 0x55bd3cc57c60] frame B:222   Avg QP:25.38  size:   216  PSNR Mean Y:49.98 U:50.19 V:50.25 Avg:50.05 Global:50.02
[libx264 @ 0x55bd3cc57c60] consecutive B-frames:  0.7%  1.3%  2.0% 96.0%
[libx264 @ 0x55bd3cc57c60] mb I  I16..4: 61.1% 14.7% 24.2%
[libx264 @ 0x55bd3cc57c60] mb P  I16..4:  7.0%  2.2%  0.1%  P16..4: 33.1%  9.4%  2.7%  0.0%  0.0%    skip:45.6%
[libx264 @ 0x55bd3cc57c60] mb B  I16..4:  0.1%  0.0%  0.0%  B16..8: 24.2%  2.0%  0.1%  direct: 0.1%  skip:73.5%  L0:47.4% L1:50.0% BI: 2.6%
[libx264 @ 0x55bd3cc57c60] 8x8 transform intra:21.2% inter:69.5%
[libx264 @ 0x55bd3cc57c60] coded y,uvDC,uvAC intra: 9.2% 42.6% 9.2% inter: 3.9% 8.3% 0.4%
[libx264 @ 0x55bd3cc57c60] i16 v,h,dc,p: 46% 38% 10%  5%
[libx264 @ 0x55bd3cc57c60] i8 v,h,dc,ddl,ddr,vr,hd,vl,hu:  5% 18% 73%  1%  0%  0%  1%  0%  1%
[libx264 @ 0x55bd3cc57c60] i4 v,h,dc,ddl,ddr,vr,hd,vl,hu: 12% 54% 11%  1%  3%  1%  9%  0%  9%
[libx264 @ 0x55bd3cc57c60] i8c dc,h,v,p: 53% 35% 11%  1%
[libx264 @ 0x55bd3cc57c60] Weighted P-Frames: Y:1.3% UV:0.0%
[libx264 @ 0x55bd3cc57c60] ref P L0: 54.1%  5.4% 30.8%  9.7%  0.0%
[libx264 @ 0x55bd3cc57c60] ref B L0: 69.3% 23.8%  6.9%
[libx264 @ 0x55bd3cc57c60] ref B L1: 84.9% 15.1%
[libx264 @ 0x55bd3cc57c60] PSNR Mean Y:50.146 U:50.295 V:50.352 Avg:50.199 Global:50.163 kb/s:125.83
